<svg xmlns="http://www.w3.org/2000/svg" xml:space="preserve" width="1400px" height="150px" version="1.1" style="shape-rendering:geometricPrecision; text-rendering:geometricPrecision; image-rendering:optimizeQuality; fill-rule:evenodd; clip-rule:evenodd" viewBox="0 0 1400 150" xmlns:xlink="http://www.w3.org/1999/xlink">
 <g id="Layer_x0020_1">
  <metadata id="CorelCorpID_0Corel-Layer"/>
  <rect fill="none" width="1400" height="150"/>
  <polygon fill="#222222" points="12.69,128.7 12.69,21.3 85.14,21.3 85.14,33.9 26.94,33.9 26.94,67.35 77.34,67.35 77.34,79.95 26.94,79.95 26.94,128.7 "/>
  <path id="1" fill="#222222" d="M125.19 128.7l41.2 -107.4 15.62 0 43.73 107.4 -16.18 0 -12.42 -32.55 -45.23 0 -11.65 32.55 -15.07 0zm30.9 -44.1l36.6 0 -11.2 -29.78c-3.38,-9.05 -5.93,-16.52 -7.7,-22.42 -1.48,7 -3.45,13.87 -5.93,20.68l-11.77 31.52z"/>
  <path id="2" fill="#222222" d="M265.76 94.2l13.35 -1.2c0.63,5.4 2.1,9.82 4.43,13.3 2.32,3.45 5.92,6.25 10.8,8.4 4.87,2.13 10.37,3.2 16.47,3.2 5.43,0 10.2,-0.8 14.35,-2.42 4.15,-1.63 7.23,-3.86 9.25,-6.68 2.03,-2.83 3.05,-5.9 3.05,-9.2 0,-3.35 -0.97,-6.28 -2.92,-8.8 -1.95,-2.5 -5.18,-4.6 -9.68,-6.33 -2.87,-1.09 -9.25,-2.85 -19.12,-5.22 -9.88,-2.38 -16.78,-4.6 -20.73,-6.7 -5.12,-2.7 -8.92,-6.05 -11.42,-10.02 -2.53,-3.98 -3.78,-8.46 -3.78,-13.38 0,-5.45 1.55,-10.53 4.63,-15.23 3.07,-4.72 7.55,-8.29 13.47,-10.75 5.9,-2.45 12.48,-3.67 19.7,-3.67 7.95,0 14.98,1.27 21.05,3.85 6.08,2.55 10.75,6.33 14.03,11.32 3.27,4.98 5.02,10.63 5.27,16.93l-13.65 1.05c-0.72,-6.77 -3.2,-11.9 -7.42,-15.35 -4.23,-3.48 -10.48,-5.2 -18.73,-5.2 -8.6,0 -14.87,1.57 -18.8,4.72 -3.92,3.15 -5.9,6.96 -5.9,11.4 0,3.85 1.4,7.03 4.18,9.53 2.75,2.47 9.87,5.05 21.42,7.65 11.55,2.62 19.48,4.9 23.78,6.85 6.22,2.88 10.85,6.5 13.82,10.92 2.98,4.41 4.45,9.48 4.45,15.23 0,5.72 -1.62,11.08 -4.9,16.12 -3.27,5.05 -7.95,8.98 -14.07,11.78 -6.13,2.8 -13,4.2 -20.68,4.2 -9.7,0 -17.82,-1.42 -24.37,-4.25 -6.58,-2.82 -11.7,-7.08 -15.43,-12.78 -3.75,-5.67 -5.7,-12.09 -5.9,-19.27z"/>
  <polygon id="3" fill="#222222" points="412.74,128.7 412.74,21.3 426.99,21.3 426.99,65.55 482.49,65.55 482.49,21.3 496.74,21.3 496.74,128.7 482.49,128.7 482.49,78.15 426.99,78.15 426.99,128.7 "/>
  <polygon id="4" fill="#222222" points="564.54,128.7 564.54,21.3 578.79,21.3 578.79,128.7 "/>
  <path id="5" fill="#222222" d="M641.14 76.42c0,-17.79 4.8,-31.74 14.37,-41.82 9.58,-10.08 21.93,-15.1 37.08,-15.1 9.92,0 18.85,2.38 26.82,7.1 7.95,4.73 14.03,11.33 18.2,19.8 4.18,8.45 6.28,18.05 6.28,28.77 0,10.88 -2.2,20.63 -6.6,29.21 -4.4,8.59 -10.63,15.09 -18.68,19.5 -8.07,4.42 -16.77,6.62 -26.1,6.62 -10.12,0 -19.15,-2.45 -27.12,-7.33 -7.95,-4.87 -14,-11.52 -18.1,-19.97 -4.1,-8.42 -6.15,-17.35 -6.15,-26.78zm14.7 0.25c0,12.93 3.47,23.1 10.42,30.53 6.95,7.42 15.68,11.15 26.18,11.15 10.7,0 19.47,-3.75 26.4,-11.25 6.9,-7.5 10.35,-18.15 10.35,-31.95 0,-8.72 -1.48,-16.35 -4.43,-22.85 -2.95,-6.5 -7.27,-11.55 -12.95,-15.12 -5.7,-3.58 -12.07,-5.38 -19.15,-5.38 -10.05,0 -18.7,3.45 -25.95,10.35 -7.25,6.9 -10.87,18.4 -10.87,34.52z"/>
  <polygon id="6" fill="#222222" points="803.69,128.7 803.69,21.3 818.29,21.3 874.64,105.6 874.64,21.3 888.29,21.3 888.29,128.7 873.69,128.7 817.34,44.4 817.34,128.7 "/>
  <polygon id="7" fill="#222222" points="956.24,128.7 956.24,21.3 970.49,21.3 970.49,128.7 "/>
  <path id="8" fill="#222222" d="M1032.54 94.2l13.35 -1.2c0.62,5.4 2.1,9.82 4.42,13.3 2.33,3.45 5.93,6.25 10.8,8.4 4.88,2.13 10.38,3.2 16.48,3.2 5.42,0 10.2,-0.8 14.35,-2.42 4.15,-1.63 7.22,-3.86 9.25,-6.68 2.02,-2.83 3.05,-5.9 3.05,-9.2 0,-3.35 -0.98,-6.28 -2.93,-8.8 -1.95,-2.5 -5.17,-4.6 -9.67,-6.33 -2.88,-1.09 -9.25,-2.85 -19.13,-5.22 -9.87,-2.38 -16.77,-4.6 -20.72,-6.7 -5.13,-2.7 -8.93,-6.05 -11.43,-10.02 -2.52,-3.98 -3.77,-8.46 -3.77,-13.38 0,-5.45 1.55,-10.53 4.62,-15.23 3.08,-4.72 7.55,-8.29 13.48,-10.75 5.9,-2.45 12.47,-3.67 19.7,-3.67 7.95,0 14.97,1.27 21.05,3.85 6.07,2.55 10.75,6.33 14.02,11.32 3.28,4.98 5.03,10.63 5.28,16.93l-13.65 1.05c-0.73,-6.77 -3.2,-11.9 -7.43,-15.35 -4.22,-3.48 -10.47,-5.2 -18.72,-5.2 -8.6,0 -14.88,1.57 -18.8,4.72 -3.93,3.15 -5.9,6.96 -5.9,11.4 0,3.85 1.4,7.03 4.17,9.53 2.75,2.47 9.88,5.05 21.43,7.65 11.55,2.62 19.47,4.9 23.77,6.85 6.23,2.88 10.85,6.5 13.83,10.92 2.97,4.41 4.45,9.48 4.45,15.23 0,5.72 -1.63,11.08 -4.9,16.12 -3.28,5.05 -7.95,8.98 -14.08,11.78 -6.12,2.8 -13,4.2 -20.67,4.2 -9.7,0 -17.83,-1.42 -24.38,-4.25 -6.57,-2.82 -11.7,-7.08 -15.42,-12.78 -3.75,-5.67 -5.7,-12.09 -5.9,-19.27z"/>
  <polygon id="9" fill="#222222" points="1203.51,128.7 1203.51,33.9 1168.11,33.9 1168.11,21.3 1253.16,21.3 1253.16,33.9 1217.76,33.9 1217.76,128.7 "/>
  <path id="10" fill="#222222" d="M1286.76 128.7l41.2 -107.4 15.63 0 43.72 107.4 -16.17 0 -12.43 -32.55 -45.22 0 -11.65 32.55 -15.08 0zm30.91 -44.1l36.6 0 -11.21 -29.78c-3.37,-9.05 -5.92,-16.52 -7.69,-22.42 -1.48,7 -3.45,13.87 -5.93,20.68l-11.77 31.52z"/>
 </g>
</svg>
